<svg width="580" height="400" xmlns="http://www.w3.org/2000/svg">
 <!-- Created with Method Draw - http://github.com/duopixel/Method-Draw/ -->
 <g>
  <title>Layer 1</title>
  <path id="svg_3" d="m334.5,148.4375c0,0 41,-56 42,-55c1,1 -232,87 -232,87" opacity="0.5" fill-opacity="null" stroke-opacity="null" stroke-width="1.5" stroke="#000" fill="none"/>
 </g>
 <g>
  <title>background</title>
  <path id="svg_6" d="m335.155129,326.426665c0,0 -33.803703,-2.134661 -51.706088,-10.295367c-17.902385,-8.160806 -26.256769,-18.565807 -26.256769,-18.565807c0,0 9.395051,8.974784 22.579202,15.774841c8.037984,4.145735 17.484952,7.483272 27.070052,7.483272c0,0 -14.798585,-7.140519 -25.898952,-2.040376c0,0 7.996567,-4.692406 21.841052,-1.122047c13.845301,3.570259 20.766668,1.529883 20.766668,1.529883c0,0 -23.391552,-0.101959 -33.53677,-5.814553c-10.145334,-5.712594 -12.651801,-8.976279 -12.651801,-8.976279c0,0 10.503151,9.282854 18.618952,10.405001c8.115801,1.122147 22.079635,-0.204616 22.079635,-0.204616c0,0 -14.440885,0.306575 -18.976768,-1.428024c-4.535067,-1.733702 -22.437452,-5.202102 -25.659552,2.040376c0,0 3.579917,-7.651011 19.930868,-5.406717c16.350951,2.244294 17.903318,1.530681 17.903318,1.530681c0,0 -29.002753,-9.589528 -45.234354,-4.182711c-16.231718,5.406717 -15.157451,9.997165 -15.157451,9.997165c0,0 1.074383,-15.913677 40.698587,-13.057729c0,0 -18.498785,-2.346253 -25.302669,-7.03856c-6.802017,-4.692406 -7.280001,-7.752273 -7.280001,-7.752273c0,0 7.757167,10.098426 17.305985,10.200385c9.548001,0.102657 12.293051,-0.611654 12.293051,-0.611654c0,0 -18.618835,-3.672218 -27.451202,-2.856746c-8.831551,0.81637 -23.153085,3.4684 -30.672603,-8.160707c0,0 7.041534,11.119411 26.257702,7.243275c19.215235,-3.876834 31.268886,0.407736 31.268886,0.407736c0,0 -29.121169,-4.794365 -35.089136,-9.588631c-5.967151,-4.794365 -6.682784,-13.057828 -6.682784,-13.057828c0,0 2.506467,13.873301 14.798585,15.200163c12.293984,1.325965 30.912003,1.019391 35.805703,5.814454c0,0 -12.293051,-7.75297 -25.064086,-6.732782c-12.770101,1.020188 -32.463319,15.097407 -42.488487,11.425189c-10.025051,-3.672218 -14.560935,-0.612352 -14.560935,-0.612352c0,0 4.178067,-3.570259 11.337901,-1.938517c7.161701,1.63264 8.713134,4.080752 21.006185,-3.161726c12.293051,-7.242478 33.17907,-16.219454 46.427154,-8.467281c0,0 -61.901705,-14.654189 -68.584489,-44.440469c0,0 5.885017,19.859979 36.121053,28.699615c30.236969,8.839636 31.986269,8.160806 31.986269,8.160806c0,0 -46.625021,-4.217395 -68.427106,-40.124803c0,0 18.936052,27.883245 48.377004,31.555463c0,0 -24.825502,-7.344337 -44.081454,-29.78618c-19.253268,-22.442641 -20.051968,-29.924418 -20.051968,-29.924418c0,0 23.395052,35.907308 67.635523,42.301025c0,0 -34.653503,-8.468776 -59.478189,-35.501067c-24.824569,-27.032291 -17.066585,-32.337049 -17.066585,-32.337049c0,0 -5.37075,-9.69069 -1.313783,-11.833025c0,0 -7.996567,-7.75297 -5.728567,-14.077219c0,0 5.728567,23.971727 34.969903,39.681585c29.241219,15.709061 31.747686,17.647478 31.747686,17.647478c0,0 -30.315603,-17.749437 -39.863603,-26.318678c-9.548001,-8.568543 -20.289618,-15.199366 -26.496169,-33.560457c0,0 5.968084,18.157174 24.825502,30.60255c18.856602,12.445377 22.557502,12.240761 22.557502,12.240761c0,0 -38.669987,-16.933167 -47.860054,-44.985646c0,0 5.37075,20.708042 47.979404,40.497855c0,0 -42.727887,-21.524312 -47.979404,-44.476648c0,0 -0.954217,-3.366341 0.835683,-4.998184c0,0 -2.14865,-4.386629 -1.432083,-9.895305c0.715633,-5.507979 1.551433,-11.424391 1.551433,-11.424391c0,0 -1.90925,23.258114 24.586102,41.211469c0,0 -31.269819,-32.032767 -20.128852,-58.417922c0,0 -2.388984,14.553626 5.09075,21.217738c0,0 -6.366501,-11.695584 -3.34145,-25.433737c0,0 -0.796833,14.553725 7.160767,27.746702c7.957717,13.192976 33.41847,38.763257 33.41847,38.763257c0,0 -29.916253,-29.923621 -34.69072,-46.788815c-4.773534,-16.865195 -2.070017,-27.88185 -2.070017,-27.88185c0,0 -2.703517,15.776336 8.912751,31.554765c11.616268,15.777831 15.595535,17.545619 15.595535,17.545619c0,0 -31.988019,-28.427824 -19.894585,-59.981792c0,0 -0.794267,31.962502 12.413218,45.699957c13.210051,13.738053 17.185818,14.145889 17.185818,14.145889c0,0 -27.211802,-18.361889 -26.257586,-44.068115c0.95585,-25.706326 6.050101,-27.066277 6.050101,-27.066277c0,0 -11.300801,21.760024 6.840167,42.707366c18.141785,20.947342 14.482301,17.001838 14.482301,17.001838c0,0 -25.778786,-28.562174 -20.686285,-50.86887c5.0925,-22.306596 14.798585,-22.034008 14.798585,-22.034008c0,0 -10.660301,5.983688 -10.183251,19.721043c0.477167,13.737455 15.754551,40.395896 15.754551,40.395896c0,0 -17.028551,-36.586238 -12.413101,-47.876278c4.6137,-11.289243 14.322468,-14.688873 14.322468,-14.688873c0,0 -18.939668,9.248967 -7.959467,34.003675c0,0 -6.841801,-23.528509 11.457251,-34.545862c0,0 -13.047534,10.609616 -7.637817,30.330759c0,0 -1.591217,-24.211824 15.753618,-32.507778c0,0 -11.136534,7.481877 -11.296484,22.579184c0,0 2.387234,-15.234748 15.593901,-23.80329c0,0 -10.025984,13.057031 -9.388167,31.826656c0,0 7.479734,-18.495542 11.140968,-32.097749c0,0 0.634433,7.345134 -2.070017,16.456661c-2.70445,9.112922 -3.977517,9.928494 -3.977517,9.928494c0,0 9.706084,-12.240761 10.184068,-24.209631c0,0 0.477167,11.697777 -3.659484,21.491123c0,0 7.879084,-5.41489 8.871334,-17.413262c0.015517,-0.178802 0.02765,-0.359099 0.039667,-0.540791c0,0 2.226467,17.544024 -5.889334,32.370338c-8.115801,14.827011 -11.935234,16.186265 -11.935234,16.186265c0,0 17.984518,-14.554423 20.688968,-34.683302c0,0 0.318033,11.287748 -4.4555,21.080397c-4.77365,9.793247 -9.866968,17.275124 -9.866968,17.275124c0,0 24.028552,-18.635873 20.051035,-52.092876c0,0 4.6137,18.632185 0.477167,32.778074c-4.13665,14.145889 -24.508402,35.907408 -24.508402,35.907408c0,0 31.669986,-23.939236 33.101253,-61.886222c0,0 3.819434,22.441844 -10.741618,42.843311c0,0 21.483235,-20.809304 21.006185,-40.599117c0,0 4.774467,9.996467 0.715633,23.66595c-4.057084,13.669383 -23.391552,45.699957 -43.44352,53.452927c0,0 54.423721,-25.094671 50.843688,-68.141801c0,0 5.967151,19.585198 -1.432083,38.559438c-7.399351,18.973444 -35.56712,47.944151 -35.56712,47.944151c0,0 40.340654,-31.826656 46.308737,-66.510656c0,0 1.90925,-10.608121 -0.477983,-16.933167c0,0 9.787401,3.672218 10.503034,19.382077c0.715633,15.709061 -8.831434,36.927496 -15.515151,51.820288c-6.683717,14.893489 -21.005252,34.683302 -21.005252,34.683302c0,0 46.546387,-60.797364 39.861853,-90.584342c0,0 11.936051,12.853113 10.503034,29.583159c-1.431267,16.72915 -11.457251,63.245476 -39.384803,84.259296c0,0 30.076203,-20.401468 38.430587,-57.532882c0,0 4.296484,-19.789813 3.580034,-30.603347c0,0 5.967151,22.850377 3.819317,39.98816c-2.147834,17.137783 -24.586102,55.493303 -24.586102,55.493303c0,0 24.586102,-32.031272 26.256769,-52.025003c0,0 2.625817,12.036843 0.716567,23.054295c-1.90925,11.016655 -12.889451,31.622738 -22.199802,43.659581c0,0 19.573985,-24.073686 23.631885,-34.683302c4.058017,-10.608919 3.34145,-16.729249 3.34145,-16.729249c0,0 4.774467,33.05146 -2.864284,48.556603c-7.638751,15.505143 -31.746869,38.559438 -33.417536,49.372175c0,0 11.218668,-25.093874 35.566186,-28.970708c24.347519,-3.876136 38.192003,2.040376 38.192003,2.040376c0,0 -36.998387,-10.201083 -56.810955,8.976977c0,0 -10.025051,10.405001 -10.264451,19.789813c0,0 25.780536,-15.505143 29.837619,-36.723678c4.058717,-21.217738 22.916252,-24.48222 22.916252,-24.48222c0,0 -21.006185,6.732782 -20.767602,25.094671c0.238583,18.361789 -23.870469,39.987363 -29.599036,39.375708c0,0 19.573985,-4.692406 26.496169,-18.769625c0,0 -4.535884,14.281037 -14.321535,22.543803c-9.787401,8.262666 -6.565301,11.832925 -6.565301,11.832925c0,0 3.342267,-8.87432 13.128851,-16.321513c9.787401,-7.446396 22.676735,-20.299509 22.796085,-28.970708c0.119233,-8.670402 10.741618,-17.341601 10.741618,-17.341601c0,0 -8.354384,9.078936 -8.713134,15.6078c-0.357817,6.528167 0.8358,16.729249 -13.127918,25.29849c-13.964651,8.568543 -19.812568,23.971827 -19.573985,30.704509c0,0 9.747618,-24.040397 38.392553,-28.800079c0,0 -27.372686,4.623736 -37.07877,31.011183c0,0 18.140035,-26.385953 42.329354,-33.322653c0,0 -25.779602,9.384813 -38.192003,32.371135c0,0 7.319901,-16.323706 30.234403,-17.002535c0,0 -19.096002,2.175524 -26.892019,17.545519c0,0 3.50035,-6.526672 16.549751,-8.839636c13.049284,-2.312964 24.027735,-10.337825 21.323285,-17.955548c0,0 3.34145,10.607424 -13.684535,17.681465c-17.027735,7.074041 -24.181619,24.012889 -24.181619,24.012889c0,0 13.865718,11.220772 25.076336,20.676448c-0.885033,5.29519 -3.94135,6.752217 -6.785334,7.312543c-1.016867,0.20033 -24.756319,-22.617456 -26.108952,-23.072036z" stroke-opacity="null" stroke-width="NaN" stroke="null" fill="#000000"/>
 </g>
</svg>